HIERARCHY
ROOT joint_0
{
	OFFSET 0.000000 0.000000 0.000000
	CHANNELS 6 Xposition Yposition Zposition Zrotation Yrotation Xrotation 
	JOINT joint_1
	{
		OFFSET 17.107422 0.519409 105.452026
		CHANNELS 3 Zrotation Yrotation Xrotation
		JOINT joint_2
		{
			OFFSET 6.110352 -1.434082 97.381958
			CHANNELS 3 Zrotation Yrotation Xrotation
			JOINT joint_3
			{
				OFFSET 6.305908 -1.739990 97.255005
				CHANNELS 3 Zrotation Yrotation Xrotation
				JOINT joint_4
				{
					OFFSET 22.074707 -0.492493 131.077026
					CHANNELS 3 Zrotation Yrotation Xrotation
					JOINT joint_5
					{
						OFFSET 34.162842 2.248718 78.700928
						CHANNELS 3 Zrotation Yrotation Xrotation
						End Site
						{
							OFFSET 0.000000 0.000000 0.000000
						}
					}
				}
				JOINT joint_6
				{
					OFFSET 17.059082 -28.836914 72.664062
					CHANNELS 3 Zrotation Yrotation Xrotation
					JOINT joint_7
					{
						OFFSET 22.639893 -134.803833 -24.691040
						CHANNELS 3 Zrotation Yrotation Xrotation
						JOINT joint_8
						{
							OFFSET 7.301758 -32.590759 -269.966064
							CHANNELS 3 Zrotation Yrotation Xrotation
							JOINT joint_9
							{
								OFFSET 35.581055 -8.517151 -242.326965
								CHANNELS 3 Zrotation Yrotation Xrotation
								End Site
								{
									OFFSET 0.000000 0.000000 0.000000
								}
							}
						}
					}
				}
				JOINT joint_10
				{
					OFFSET 7.819092 28.232056 74.432983
					CHANNELS 3 Zrotation Yrotation Xrotation
					JOINT joint_11
					{
						OFFSET -23.457031 135.063843 -22.406982
						CHANNELS 3 Zrotation Yrotation Xrotation
						JOINT joint_12
						{
							OFFSET 17.896973 48.138672 -267.131958
							CHANNELS 3 Zrotation Yrotation Xrotation
							JOINT joint_13
							{
								OFFSET 46.526367 17.567627 -239.975037
								CHANNELS 3 Zrotation Yrotation Xrotation
								End Site
								{
									OFFSET 0.000000 0.000000 0.000000
								}
							}
						}
					}
				}
			}
		}
	}
	JOINT joint_14
	{
		OFFSET 10.553467 -100.140320 -126.306030
		CHANNELS 3 Zrotation Yrotation Xrotation
		JOINT joint_15
		{
			OFFSET -52.094238 -9.565002 -436.052002
			CHANNELS 3 Zrotation Yrotation Xrotation
			JOINT joint_16
			{
				OFFSET -55.682617 -11.310120 -462.482971
				CHANNELS 3 Zrotation Yrotation Xrotation
				JOINT joint_17
				{
					OFFSET 179.119385 -5.942566 -84.087004
					CHANNELS 3 Zrotation Yrotation Xrotation
					End Site
					{
						OFFSET 0.000000 0.000000 0.000000
					}
				}
			}
		}
	}
	JOINT joint_18
	{
		OFFSET -22.235352 101.620483 -123.583984
		CHANNELS 3 Zrotation Yrotation Xrotation
		JOINT joint_19
		{
			OFFSET -38.118408 12.306396 -437.429016
			CHANNELS 3 Zrotation Yrotation Xrotation
			JOINT joint_20
			{
				OFFSET -51.789307 8.010498 -463.006004
				CHANNELS 3 Zrotation Yrotation Xrotation
				JOINT joint_21
				{
					OFFSET 170.088135 59.632324 -83.078003
					CHANNELS 3 Zrotation Yrotation Xrotation
					End Site
					{
						OFFSET 0.000000 0.000000 0.000000
					}
				}
			}
		}
	}
}
MOTION
Frames: 12
Frame Time: 0.016667
-3210.768311 899.901184 1140.239990 4.872707 2.309971 -0.240605 0.281978 5.215379 0.079048 -0.034943 -0.929153 0.070115 -0.021570 0.922352 -0.024875 0.534109 -1.595432 -1.111583 0.000000 0.000000 0.000000 0.110909 4.096877 -1.597384 -0.740354 4.858187 1.925227 0.317747 -4.952226 1.140846 0.000000 0.000000 0.000000 -1.509499 1.330183 1.255270 0.521739 1.257106 -1.088279 1.056264 1.724107 4.798112 0.000000 0.000000 0.000000 1.306097 -18.359841 -3.581764 1.468202 11.551848 -0.259244 1.982797 1.197905 0.936380 0.000000 0.000000 0.000000 -1.680892 1.557333 3.460622 -1.072301 6.502719 -1.875577 -1.048044 3.924171 -1.865124 0.000000 0.000000 0.000000 
-3202.770020 894.172424 1139.123047 5.473915 1.977837 0.015213 0.461315 5.036014 -0.147888 0.163539 -0.894133 0.165292 0.184670 0.865613 -0.044368 0.541785 -0.966153 -1.173301 0.000000 0.000000 0.000000 0.158779 4.277649 -1.735794 -0.771604 5.117792 2.148334 0.326996 -4.909972 1.225578 0.000000 0.000000 0.000000 -1.213624 1.132542 1.393208 0.490773 1.021527 -0.862436 0.901685 1.131341 4.272813 0.000000 0.000000 0.000000 1.573197 -17.485724 -3.800896 1.702131 9.647777 -0.183738 2.053231 2.799983 1.025197 0.000000 0.000000 0.000000 -2.054673 1.991240 3.707292 -1.406967 7.104858 -2.008013 -1.404989 3.651710 -1.936446 0.000000 0.000000 0.000000 
-3194.510254 888.296753 1136.938965 6.178201 1.569355 0.270763 0.627028 4.857635 -0.245180 0.377196 -0.859800 0.188544 0.401648 0.804213 -0.029266 0.532454 -0.224034 -1.206962 0.000000 0.000000 0.000000 0.132145 4.470036 -2.039622 -0.804374 5.407433 2.379303 0.351634 -4.953633 1.389772 0.000000 0.000000 0.000000 -0.839899 0.963720 1.618779 0.448030 0.783168 -0.646440 0.684483 0.355239 3.472995 0.000000 0.000000 0.000000 1.447771 -16.357311 -3.880251 1.463750 8.092389 -0.093167 1.675072 4.390772 0.911989 0.000000 0.000000 0.000000 -2.484047 2.563593 3.975551 -1.792812 7.715891 -2.144390 -1.841646 2.912738 -1.880785 0.000000 0.000000 0.000000 
-3186.642334 882.269104 1134.359985 6.991670 1.152074 0.430570 0.754329 4.752486 -0.195030 0.565671 -0.850116 0.176465 0.591191 0.776139 0.006244 0.536200 0.491106 -1.275031 0.000000 0.000000 0.000000 0.171250 4.619351 -2.311688 -0.840343 5.641534 2.494284 0.379039 -5.041519 1.563846 0.000000 0.000000 0.000000 -0.527736 0.777240 1.722680 0.421496 0.564800 -0.393932 0.468601 -0.482825 2.711134 0.000000 0.000000 0.000000 1.094456 -15.298369 -3.687580 1.025875 7.115535 -0.129892 1.148766 5.431007 0.711784 0.000000 0.000000 0.000000 -2.933436 2.885132 4.423374 -2.136329 8.730186 -2.413720 -2.262915 1.991331 -1.752348 0.000000 0.000000 0.000000 
-3179.570801 875.954834 1131.577026 7.963597 0.766000 0.382138 0.808102 4.751070 0.120593 0.701900 -0.893657 0.120542 0.726951 0.819041 0.055022 0.589724 1.117209 -1.459075 0.000000 0.000000 0.000000 0.429745 4.706291 -2.448284 -0.886615 5.796789 2.409844 0.405766 -5.198812 1.730591 0.000000 0.000000 0.000000 -0.379905 0.539144 1.499156 0.440085 0.406528 0.003381 0.287345 -1.361020 2.186041 0.000000 0.000000 0.000000 0.578410 -14.525215 -2.990752 0.536141 7.002508 -0.515732 0.623515 5.401216 0.472816 0.000000 0.000000 0.000000 -3.406816 2.695046 5.215737 -2.404930 10.442304 -2.880226 -2.631653 0.995742 -1.571087 0.000000 0.000000 0.000000 
-3173.046143 869.349792 1128.332031 9.107142 0.389318 0.149753 0.789610 4.818900 0.717188 0.798893 -0.982882 0.001608 0.821857 0.918338 0.116722 0.680210 1.714082 -1.736494 0.000000 0.000000 0.000000 0.854906 4.759233 -2.523509 -0.943555 5.911569 2.162255 0.435726 -5.446909 1.915090 0.000000 0.000000 0.000000 -0.333999 0.267658 1.023447 0.486138 0.301174 0.541161 0.107443 -2.329582 1.767954 0.000000 0.000000 0.000000 -0.173646 -13.916169 -1.840006 -0.114215 7.648473 -1.171571 -0.014253 4.522126 0.151781 0.000000 0.000000 0.000000 -3.936562 2.139691 6.293118 -2.658916 12.690578 -3.465636 -2.990461 -0.113987 -1.342370 0.000000 0.000000 0.000000 
-3167.190430 863.077209 1125.744019 10.246127 0.067587 -0.085695 0.743206 5.025090 1.262702 0.866558 -1.082923 -0.095445 0.889876 1.028322 0.180946 0.763183 2.192227 -1.995865 0.000000 0.000000 0.000000 1.159440 4.702636 -2.460636 -0.974348 5.834131 1.740952 0.448147 -5.535383 1.987094 0.000000 0.000000 0.000000 -0.309013 0.036006 0.562277 0.533071 0.198344 0.858409 -0.042686 -3.310860 1.593478 0.000000 0.000000 0.000000 -0.884141 -13.482438 -0.854257 -0.750456 8.525392 -1.620969 -0.593631 3.546841 -0.146246 0.000000 0.000000 0.000000 -4.457380 1.205303 7.393422 -2.866765 15.343924 -4.197893 -3.267779 -0.827800 -1.211079 0.000000 0.000000 0.000000 
-3162.222900 857.599121 1124.676025 11.259802 -0.178865 -0.252103 0.681450 5.470285 1.631191 0.915847 -1.162569 -0.149165 0.943291 1.120235 0.233875 0.818920 2.443616 -2.176789 0.000000 0.000000 0.000000 1.101434 4.446192 -2.146321 -0.931589 5.379564 1.028562 0.432419 -5.206421 1.887416 0.000000 0.000000 0.000000 -0.252480 -0.095181 0.268901 0.580837 0.074140 0.670655 -0.133285 -4.334131 1.863969 0.000000 0.000000 0.000000 -1.335892 -13.298770 -0.452518 -1.250881 9.434629 -1.453669 -0.975381 2.863097 -0.343423 0.000000 0.000000 0.000000 -4.930949 -0.181118 8.408360 -2.991594 18.444439 -5.147021 -3.386517 -0.714638 -1.293755 0.000000 0.000000 0.000000 
-3158.094238 852.678406 1124.697021 12.219980 -0.374984 -0.443904 0.571794 6.145301 2.021578 0.954506 -1.238213 -0.227785 0.987304 1.204695 0.279728 0.868918 2.498891 -2.327613 0.000000 0.000000 0.000000 0.786355 4.017523 -1.618474 -0.827718 4.607294 0.030061 0.394986 -4.542639 1.672811 0.000000 0.000000 0.000000 -0.198850 -0.144906 0.027212 0.634500 -0.038985 0.133408 -0.187615 -5.460275 2.533870 0.000000 0.000000 0.000000 -1.635127 -13.335343 -0.372951 -1.690643 10.561324 -0.847616 -1.230166 2.227866 -0.480127 0.000000 0.000000 0.000000 -5.402413 -1.989112 9.450525 -3.073818 22.000186 -6.252818 -3.342549 0.179661 -1.576911 0.000000 0.000000 0.000000 
-3154.225098 848.092834 1125.303955 13.104849 -0.474107 -0.582450 0.442354 6.791321 2.331881 1.005833 -1.308239 -0.318404 1.045739 1.266510 0.330759 0.886869 2.535004 -2.399855 0.000000 0.000000 0.000000 0.493783 3.563743 -1.189957 -0.744737 3.883768 -0.701454 0.325056 -3.885507 1.233300 0.000000 0.000000 0.000000 -0.178600 -0.139435 -0.075370 0.644527 -0.145313 -0.542256 -0.239346 -6.376835 3.183009 0.000000 0.000000 0.000000 -1.865013 -13.320341 -0.336671 -2.081998 11.330195 -0.298188 -1.475837 1.817863 -0.604403 0.000000 0.000000 0.000000 -5.851053 -3.968996 10.423349 -3.156724 25.500075 -7.320930 -3.177037 1.515639 -1.968883 0.000000 0.000000 0.000000 
-3150.218750 843.646240 1126.276978 13.932995 -0.404674 -0.570587 0.307723 7.197486 2.423427 1.065833 -1.361068 -0.404073 1.115150 1.304830 0.405690 0.841883 2.669292 -2.331044 0.000000 0.000000 0.000000 0.420665 3.161305 -1.125740 -0.753189 3.466927 -0.654415 0.190563 -3.439698 0.324613 0.000000 0.000000 0.000000 -0.228069 -0.094949 0.108456 0.586959 -0.277831 -1.354632 -0.265280 -6.764685 3.586277 0.000000 0.000000 0.000000 -2.092317 -13.104456 -0.169194 -2.439974 11.316036 -0.186105 -1.818281 1.729266 -0.761831 0.000000 0.000000 0.000000 -6.242196 -6.091662 11.273627 -3.243999 28.743283 -8.281684 -2.909649 3.107697 -2.420962 0.000000 0.000000 0.000000 
-3146.293945 839.418396 1127.797974 14.714682 -0.193027 -0.443891 0.154397 7.472657 2.358698 1.125243 -1.394403 -0.503229 1.185643 1.318415 0.496748 0.745247 2.829282 -2.140009 0.000000 0.000000 0.000000 0.465203 2.746269 -1.309235 -0.836160 3.215449 -0.028891 -0.018832 -3.064515 -1.014863 0.000000 0.000000 0.000000 -0.329272 -0.004958 0.542056 0.489096 -0.434886 -2.380221 -0.240525 -6.740730 3.921155 0.000000 0.000000 0.000000 -2.290672 -12.784513 0.046990 -2.760401 10.742720 -0.339606 -2.213160 1.889058 -0.934781 0.000000 0.000000 0.000000 -6.557734 -8.452537 12.042451 -3.322500 31.909917 -9.180347 -2.485426 5.133318 -2.981205 0.000000 0.000000 0.000000 
